<?xml version="1.0" encoding="UTF-8"?>
<!-- Generator: Adobe Illustrator 26.3.1, SVG Export Plug-In . SVG Version: 6.00 Build 0)  -->
<svg version="1.1" id="Layer_1" xmlns="http://www.w3.org/2000/svg" xmlns:xlink="http://www.w3.org/1999/xlink" x="0px" y="0px" viewBox="0 0 300 53" style="enable-background:new 0 0 300 53;" xml:space="preserve">
<style type="text/css">
	.st0{fill:#008339;}
</style>
<g>
	<g>
		<path class="st0" d="M17.8,8.5c0.1,1.3-0.4,1.9-1.6,2.1c-2.2,0.4-6.1,1.5-8.8,4.9C3.7,20.4,4,25,4.6,27.3c0.3,1-0.2,1.9-1.1,2.3    l0,0c-1,0.5-2.1,0.1-2.5-0.8c-0.1-0.1-0.1-0.2-0.1-0.4c-3.1-10.2,2.6-21,12.8-24.2c0.5-0.1,1-0.3,1.4-0.4c1.4-0.3,2.2,0.2,2.3,1.7    L17.8,8.5z M35.2,29.7c1.3,0.6,2.2,0.2,2.6-1.1c3.2-10.2-2.5-21-12.7-24.2c-0.5-0.1-1-0.3-1.4-0.4c-1-0.3-2,0.3-2.3,1.3    c-0.1,0.1-0.1,0.2-0.1,0.4l0,0c-0.1,1,0.5,1.9,1.4,2.1c2.3,0.7,6.5,2.6,8.9,8.3c1.6,4,0.7,7.9-0.1,10c-0.5,1.2-0.1,1.9,1,2.5    L35.2,29.7z M5.4,33c-1.1,0.8-1.3,1.8-0.3,2.8c7.3,7.9,19.5,8.3,27.3,1.1l0,0c0.4-0.4,0.7-0.7,1-1c0.7-0.7,0.8-1.9,0.1-2.7    c-0.1-0.1-0.2-0.2-0.3-0.2l0,0c-0.8-0.6-1.9-0.5-2.5,0.2c-1.7,1.7-5.6,4.4-11.6,3.5c-4.3-0.6-7.2-3.4-8.6-5.1    c-0.8-1-1.6-1.1-2.6-0.4L5.4,33z M13.6,18.9c-2.2,0-3.9,1.7-3.9,3.9s1.7,3.9,3.9,3.9s3.9-1.7,3.9-3.9l0,0l0,0    C17.4,20.6,15.7,18.9,13.6,18.9z M25.1,18.9c-2.2,0-3.9,1.7-3.9,3.8c0,2.2,1.7,3.9,3.8,3.9s3.9-1.7,3.9-3.8l0,0    C29,20.6,27.3,18.9,25.1,18.9L25.1,18.9z"/>
		<path class="st0" d="M58.8,19.5h-4.4c-0.2,0-0.3-0.1-0.4-0.2c-0.1-0.1-0.2-0.3-0.2-0.4v-5.5c0-0.2,0.1-0.3,0.2-0.4    c0.1-0.1,0.2-0.2,0.4-0.2h2.7c0.2,0,0.3,0.1,0.4,0.2c0.1,0.1,0.2,0.3,0.2,0.4v2.6c0,0.1,0.1,0.2,0.2,0.2h6.8    c0.1,0,0.2-0.1,0.2-0.2v-2.5c0-4.4-2.2-6.6-6.4-6.6h-5.4c-4.3,0-6.4,2.2-6.4,6.6v6.1c0,4.4,2.2,6.6,6.4,6.6h4.4    c0.2,0,0.3,0.1,0.4,0.2c0.1,0.1,0.2,0.3,0.2,0.4v6c0,0.2-0.1,0.3-0.2,0.4c-0.1,0.1-0.2,0.2-0.4,0.2h-3c-0.2,0-0.3-0.1-0.4-0.2    C54,33.2,54,33,54,32.9v-3.6c0-0.1-0.1-0.2-0.2-0.2l0,0h-7c-0.1,0-0.2,0.1-0.2,0.2l0,0v3.4c0,4.4,2.2,6.6,6.4,6.6h5.8    c4.3,0,6.4-2.2,6.4-6.6v-6.6C65.2,21.8,63,19.6,58.8,19.5z"/>
		<path class="st0" d="M101.5,7.1h-7c-0.1,0-0.2,0.1-0.2,0.2L92,27.4c0,0.1-0.1,0.2-0.2,0.1c-0.1,0-0.1-0.1-0.1-0.1L88.6,7.2    c0-0.1-0.1-0.1-0.2-0.1H82c-0.1,0-0.2,0.1-0.2,0.1l-3.1,20.1c0,0.1-0.1,0.2-0.2,0.1c-0.1,0-0.1-0.1-0.1-0.1L76.2,7.2    C76.2,7.1,76.1,7,76,7h-7c-0.1,0-0.2,0.1-0.2,0.2l0,0l5.2,31.9c0,0.1,0.1,0.1,0.2,0.1h8c0.1,0,0.2-0.1,0.2-0.1L85,22.6    c0-0.1,0.1-0.2,0.2-0.1c0.1,0,0.1,0.1,0.1,0.1L88,39.1c0,0.1,0.1,0.1,0.2,0.1h8c0.1,0,0.2-0.1,0.2-0.1l5.2-31.9    C101.6,7.1,101.6,7.1,101.5,7.1L101.5,7.1z"/>
		<path class="st0" d="M118.8,6.6h-6.5c-4.3,0-6.4,2.3-6.4,6.8v25.8c0,0.1,0.1,0.2,0.2,0.2h7.1c0.1,0,0.2-0.1,0.2-0.2V28.8    c0-0.1,0.1-0.2,0.2-0.2l0,0h3.9c0.1,0,0.2,0.1,0.2,0.2l0,0v10.3c0,0.1,0.1,0.2,0.2,0.2h7.1c0.1,0,0.2-0.1,0.2-0.2l0,0V13.4    C125.2,8.9,123,6.6,118.8,6.6z M117.7,12.5v10.1c0,0.1-0.1,0.2-0.2,0.2l0,0h-3.9c-0.1,0-0.2-0.1-0.2-0.2l0,0V12.5    c0-0.2,0.1-0.4,0.2-0.5c0.1-0.1,0.2-0.2,0.4-0.2h3.1c0.2,0,0.3,0.1,0.4,0.2C117.6,12.2,117.7,12.3,117.7,12.5L117.7,12.5z"/>
		<path class="st0" d="M143.4,7.1h-12.5c-0.1,0-0.2,0.1-0.2,0.2l0,0v31.9c0,0.1,0.1,0.2,0.2,0.2h7.1c0.1,0,0.2-0.1,0.2-0.2V28.8    c0-0.1,0.1-0.2,0.2-0.2l0,0h5c4.3,0,6.4-2.3,6.4-6.8v-8C149.8,9.3,147.6,7.1,143.4,7.1z M142.3,13.1v9.1c0,0.2-0.1,0.4-0.2,0.5    c-0.1,0.1-0.2,0.2-0.4,0.2h-3.3c-0.1,0-0.2-0.1-0.2-0.2v-10c0-0.1,0.1-0.2,0.2-0.2l0,0h3.3c0.2,0,0.3,0.1,0.4,0.2    C142.2,12.7,142.3,12.9,142.3,13.1z"/>
		<path class="st0" d="M166.9,7.1h-12.5c-0.1,0-0.2,0.1-0.2,0.2l0,0v31.9c0,0.1,0.1,0.2,0.2,0.2h7.2c0.1,0,0.2-0.1,0.2-0.2V28.8    c0-0.1,0.1-0.2,0.2-0.2l0,0h5c4.3,0,6.4-2.3,6.4-6.8v-8C173.2,9.3,171.1,7.1,166.9,7.1z M165.7,13.1v9.1c0,0.2-0.1,0.4-0.2,0.5    c-0.1,0.1-0.2,0.2-0.4,0.2h-3.3c-0.1,0-0.2-0.1-0.2-0.2v-10c0-0.1,0.1-0.2,0.2-0.2l0,0h3.3c0.2,0,0.3,0.1,0.4,0.2    C165.7,12.7,165.7,12.9,165.7,13.1z"/>
		<path class="st0" d="M190.3,6.6h-6.5c-4.3,0-6.4,2.3-6.4,6.8v25.8c0,0.1,0.1,0.2,0.2,0.2h7.1c0.1,0,0.2-0.1,0.2-0.2V28.8    c0-0.1,0.1-0.2,0.2-0.2h3.9c0.1,0,0.2,0.1,0.2,0.2v10.3c0,0.1,0.1,0.2,0.2,0.2h7.1c0.1,0,0.2-0.1,0.2-0.2l0,0V13.4    C196.6,8.9,194.5,6.6,190.3,6.6z M189.1,12.5v10.1c0,0.1-0.1,0.2-0.2,0.2h-3.9c-0.1,0-0.2-0.1-0.2-0.2V12.5c0-0.2,0.1-0.4,0.2-0.5    c0.1-0.1,0.2-0.2,0.4-0.2h3.1c0.2,0,0.3,0.1,0.4,0.2C189.1,12.2,189.1,12.3,189.1,12.5z"/>
	</g>
	<g>
		<path d="M223,38.9c-0.2-0.3-0.4-0.7-0.4-1.3V8.4c0-0.6,0.1-1,0.4-1.3c0.2-0.3,0.7-0.4,1.2-0.4h8.3c3.2,0,5.6,0.7,7.1,2.1    c1.6,1.4,2.3,3.4,2.3,5.9c0,1.7-0.4,3.3-1.2,4.6c-0.8,1.3-1.8,2.3-3,2.9v0.2c1.4,0.4,2.6,1.3,3.7,2.6c1,1.3,1.5,3,1.5,5.2    c0,2.9-0.9,5.2-2.6,6.8c-1.7,1.6-4.3,2.4-7.7,2.4h-8.3C223.6,39.3,223.2,39.2,223,38.9z M232.4,20.2c1.1,0,2-0.4,2.7-1.2    c0.6-0.8,0.9-1.9,0.9-3.3c0-1.5-0.3-2.6-0.9-3.2c-0.6-0.7-1.5-1-2.7-1h-3.8v8.7H232.4z M233,34.4c2.5,0,3.8-1.6,3.8-4.8    c0-1.5-0.3-2.6-1-3.4c-0.7-0.7-1.7-1.1-3.1-1.1h-4.2v9.3H233z"/>
		<path d="M249,38.1c-1-1.1-1.5-2.7-1.5-5V5.5c0-0.9,0.8-1.3,2.5-1.3h0.9c1.6,0,2.5,0.4,2.5,1.3V33c0,0.7,0.1,1.2,0.3,1.5    c0.2,0.3,0.5,0.4,1,0.4c0.2,0,0.4,0,0.7-0.1c0.2-0.1,0.4-0.1,0.5-0.1c0.3,0,0.6,0.4,0.9,1.1c0.2,0.7,0.4,1.4,0.4,1.9    c0,0.7-0.4,1.1-1.2,1.4c-0.8,0.3-1.7,0.5-2.7,0.5C251.4,39.6,250.1,39.1,249,38.1z"/>
		<path d="M261.1,36.4c-1.6-2.1-2.4-5.2-2.4-9.3c0-4.1,0.8-7.2,2.4-9.3c1.6-2.1,3.9-3.2,7-3.2s5.4,1.1,7,3.2    c1.6,2.1,2.4,5.3,2.4,9.3s-0.8,7.2-2.4,9.3c-1.6,2.1-3.9,3.2-6.9,3.2S262.7,38.6,261.1,36.4z M270.6,33.1c0.5-1.2,0.8-3.2,0.8-6    s-0.3-4.8-0.8-6s-1.4-1.8-2.5-1.8s-2,0.6-2.6,1.8s-0.8,3.2-0.8,6s0.3,4.8,0.8,6c0.5,1.2,1.4,1.8,2.6,1.8S270,34.3,270.6,33.1z"/>
		<path d="M283.1,47.7c-1.5-1-2.2-2.6-2.2-4.6c0-1.3,0.3-2.4,1-3.4c0.6-1,1.5-1.7,2.7-2.3v-0.1c-0.6-0.4-1-0.9-1.3-1.5    c-0.3-0.6-0.4-1.3-0.4-2c0-1.8,0.7-3.2,2.2-4.3c-2.3-1.2-3.4-3.5-3.4-6.7c0-2.6,0.7-4.7,2.2-6.1c1.5-1.4,3.5-2.1,6-2.1    c1,0,1.9,0.1,2.8,0.3h6.4c0.4,0,0.7,0.1,0.9,0.4c0.2,0.3,0.3,0.8,0.3,1.4v0.7c0,0.6-0.1,1.1-0.2,1.4c-0.2,0.3-0.4,0.4-0.8,0.4    c-0.8,0-1.5,0-2-0.1l-0.1,0.1c0.6,1,0.9,2.2,0.9,3.7c0,2.4-0.7,4.2-2,5.5c-1.3,1.3-3.2,2-5.5,2.1c-1.8,0.1-2.7,0.8-2.7,2.2    c0,0.8,0.3,1.4,1,1.7c0.7,0.3,1.7,0.6,3.1,0.8c0.3,0,0.8,0.1,1.4,0.2c1.8,0.4,3.3,1,4.4,2c1.1,1,1.6,2.4,1.6,4.3    c0,2.4-0.8,4.2-2.5,5.5c-1.7,1.3-4,2-7.1,2C286.7,49.2,284.5,48.7,283.1,47.7z M293.1,44.2c0.7-0.5,1-1.2,1-2c0-1-0.4-1.6-1.1-2    c-0.7-0.3-1.8-0.6-3.4-0.9c-0.9-0.2-1.5-0.3-1.8-0.3c-0.6,0.3-1.1,0.8-1.4,1.3c-0.3,0.5-0.5,1.2-0.5,1.8c0,0.9,0.4,1.6,1.1,2.1    s1.7,0.7,3,0.7C291.4,44.9,292.4,44.7,293.1,44.2z M292,25.7c0.6-0.6,0.9-1.6,0.9-3c0-1.5-0.3-2.6-0.8-3.1    c-0.6-0.6-1.3-0.9-2.3-0.9c-1,0-1.7,0.3-2.3,0.9c-0.5,0.6-0.8,1.6-0.8,3.1c0,2.5,1,3.8,3.1,3.8C290.6,26.5,291.4,26.2,292,25.7z"/>
	</g>
</g>
</svg>